<svg width="59" height="58" viewBox="0 0 59 58" fill="none" xmlns="http://www.w3.org/2000/svg">
<g clip-path="url(#clip0_1124_13305)">
<path d="M39.1667 29V14.5C39.1667 13.2181 38.6574 11.9887 37.751 11.0823C36.8446 10.1759 35.6152 9.66667 34.3333 9.66667C33.0515 9.66667 31.8221 10.1759 30.9157 11.0823C30.0092 11.9887 29.5 13.2181 29.5 14.5V29H44C44.9559 29 45.8904 28.7165 46.6853 28.1854C47.4801 27.6543 48.0996 26.8995 48.4654 26.0163C48.8312 25.1331 48.927 24.1613 48.7405 23.2237C48.554 22.2862 48.0936 21.4249 47.4177 20.749C46.7417 20.073 45.8805 19.6127 44.9429 19.4262C44.0054 19.2397 43.0335 19.3354 42.1504 19.7013C41.2672 20.0671 40.5123 20.6866 39.9812 21.4814C39.4501 22.2763 39.1667 23.2107 39.1667 24.1667" stroke="#F5F5F5" stroke-width="2.75" stroke-linecap="round" stroke-linejoin="round"/>
<path d="M29.5 38.6667H44C45.2819 38.6667 46.5113 38.1574 47.4177 37.251C48.3241 36.3446 48.8333 35.1152 48.8333 33.8333C48.8333 32.5515 48.3241 31.3221 47.4177 30.4157C46.5113 29.5092 45.2819 29 44 29H29.5V43.5C29.5 44.4559 29.7835 45.3904 30.3146 46.1853C30.8457 46.9801 31.6005 47.5996 32.4837 47.9654C33.3669 48.3312 34.3387 48.427 35.2763 48.2405C36.2138 48.054 37.0751 47.5936 37.751 46.9177C38.427 46.2417 38.8873 45.3805 39.0738 44.4429C39.2603 43.5054 39.1646 42.5335 38.7988 41.6504C38.4329 40.7672 37.8134 40.0123 37.0186 39.4812C36.2238 38.9501 35.2893 38.6667 34.3333 38.6667" stroke="#F5F5F5" stroke-width="2.75" stroke-linecap="round" stroke-linejoin="round"/>
<path d="M19.8333 29V43.5C19.8333 44.7819 20.3425 46.0113 21.2489 46.9177C22.1554 47.8241 23.3847 48.3333 24.6666 48.3333C25.9485 48.3333 27.1779 47.8241 28.0843 46.9177C28.9907 46.0113 29.5 44.7819 29.5 43.5V29H15C14.044 29 13.1095 29.2835 12.3147 29.8146C11.5199 30.3457 10.9004 31.1005 10.5345 31.9837C10.1687 32.8669 10.073 33.8387 10.2595 34.7763C10.446 35.7138 10.9063 36.5751 11.5823 37.251C12.2582 37.927 13.1195 38.3873 14.057 38.5738C14.9946 38.7603 15.9664 38.6646 16.8496 38.2988C17.7328 37.9329 18.4876 37.3134 19.0187 36.5186C19.5498 35.7238 19.8333 34.7893 19.8333 33.8333" stroke="#F5F5F5" stroke-width="2.75" stroke-linecap="round" stroke-linejoin="round"/>
<path d="M29.5 19.3333H15C13.7181 19.3333 12.4887 19.8426 11.5823 20.749C10.6759 21.6554 10.1666 22.8848 10.1666 24.1667C10.1666 25.4485 10.6759 26.6779 11.5823 27.5843C12.4887 28.4908 13.7181 29 15 29H29.5V14.5C29.5 13.544 29.2165 12.6096 28.6854 11.8147C28.1543 11.0199 27.3994 10.4004 26.5163 10.0346C25.6331 9.66875 24.6613 9.57303 23.7237 9.75953C22.7861 9.94603 21.9249 10.4064 21.2489 11.0823C20.573 11.7583 20.1127 12.6195 19.9262 13.5571C19.7397 14.4946 19.8354 15.4665 20.2012 16.3496C20.567 17.2328 21.1865 17.9877 21.9814 18.5188C22.7762 19.0499 23.7107 19.3333 24.6666 19.3333" stroke="#F5F5F5" stroke-width="2.75" stroke-linecap="round" stroke-linejoin="round"/>
</g>
<defs>
<clipPath id="clip0_1124_13305">
<rect width="58" height="58" fill="white" transform="translate(0.5)"/>
</clipPath>
</defs>
</svg>
