<svg width="23" height="22" viewBox="0 0 23 22" fill="none" xmlns="http://www.w3.org/2000/svg">
<path d="M10.0542 5.24003L6.67123 1.33503C6.28123 0.88503 5.56623 0.88703 5.11323 1.34103L2.33123 4.12803C1.50323 4.95703 1.26623 6.18803 1.74523 7.17503C4.60685 13.1 9.38528 17.8851 15.3062 20.755C16.2922 21.234 17.5222 20.997 18.3502 20.168L21.1582 17.355C21.6132 16.9 21.6142 16.181 21.1602 15.791L17.2402 12.426C16.8302 12.074 16.1932 12.12 15.7822 12.532L14.4182 13.898C14.3484 13.9712 14.2565 14.0195 14.1566 14.0354C14.0567 14.0513 13.9543 14.0339 13.8652 13.986C11.6357 12.7021 9.78622 10.8503 8.50523 8.61903C8.45726 8.52978 8.43989 8.42726 8.45578 8.32719C8.47168 8.22711 8.51996 8.13502 8.59323 8.06503L9.95323 6.70403C10.3652 6.29003 10.4102 5.65003 10.0542 5.23903V5.24003Z" stroke="white" stroke-width="1.5" stroke-linecap="round" stroke-linejoin="round"/>
</svg>
